<?xml version="1.0" encoding="utf-8"?><!-- Uploaded to: SVG Repo, www.svgrepo.com, Generator: SVG Repo Mixer Tools -->
<svg width="800px" height="800px" viewBox="0 0 24 24" id="clock-alt" xmlns="http://www.w3.org/2000/svg" class="icon multi-color"><path id="tertiary-fill" d="M20,12A8,8,0,0,1,4,12a8.2,8.2,0,0,1,.14-1.5,8,8,0,0,0,15.72,0A8.2,8.2,0,0,1,20,12Z" style="fill: #b7b7b7; stroke-width: 2;"></path><path id="secondary-stroke" d="M4.71,8.7a3,3,0,1,1,4-4m10.59,4a3,3,0,1,0-4-4M12,8v4l2,2" style="fill: none; stroke: rgb(44, 169, 188); stroke-linecap: round; stroke-linejoin: round; stroke-width: 2;"></path><path id="primary-stroke" d="M20,12A8,8,0,0,1,4,12a7.91,7.91,0,0,1,.71-3.3,8,8,0,0,1,4-4,8,8,0,0,1,6.6,0,8,8,0,0,1,4,4A7.91,7.91,0,0,1,20,12ZM8,19,6,21m10-2,2,2" style="fill: none; stroke: rgb(0, 0, 0); stroke-linecap: round; stroke-linejoin: round; stroke-width: 2;"></path></svg>