<?xml version="1.0" ?>
<!-- Uploaded to: SVG Repo, www.svgrepo.com, Generator: SVG Repo Mixer Tools -->
<svg width="800px" height="800px" viewBox="0 0 50 50" id="Message_And_Communication_Icons" version="1.1" xml:space="preserve" xmlns="http://www.w3.org/2000/svg" xmlns:xlink="http://www.w3.org/1999/xlink">
<g>
<g>
<g>
<path d="M25.8,29.8c-0.1,0-0.3,0-0.4,0C25.5,29.8,25.6,29.8,25.8,29.8z" style="fill:#4DE0F9;"/>
<path d="M33.4,20.3L31,22.6v-1.9l-1,0.9v-5.5H5.8v19.3h14.8v-1.2c0-2.4,2-4.4,4.5-4.4c0.1,0,0.2,0,0.3,0     c-0.9-0.2-1.7-0.7-2.2-1.5c-0.9-0.6-1.6-1.7-1.5-2.9c0-1.9,1.6-3.4,3.4-3.4c1.2,0,2.2,0.6,2.8,1.6c0.9,0.6,1.6,1.7,1.5,2.9     c0,1.9-1.6,3.4-3.4,3.4c-0.1,0-0.1,0-0.2,0c1.1,0.2,2.1,0.8,2.8,1.7c1.1,0.8,1.9,2.1,1.9,3.7v0.1h13.8v-15H33.4z" style="fill:#4DE0F9;"/>
</g>
<g>
<g>
<rect height="1.2" style="fill:#0D5FC3;" width="1.5" x="24.2" y="14.5"/>
</g>
</g>
<g>
<g>
<rect height="15.1" style="fill:#0D5FC3;" width="1.2" x="43.6" y="21.6"/>
</g>
</g>
<g>
<g>
<polygon points="6.4,36.7 5.2,36.7 5.2,12.7 27.9,12.7 27.9,13.9 6.4,13.9     " style="fill:#0D5FC3;"/>
</g>
</g>
<g>
<g>
<path d="M44.7,40.7H5.3c-1.2,0-2.1-1-2.1-2.1v-2.5h19v1.2l5.7,0l0-1.3h19v2.5      C46.9,39.8,45.9,40.7,44.7,40.7z M4.3,37.3v1.3c0,0.5,0.4,0.9,0.9,0.9h39.5c0.5,0,0.9-0.4,0.9-0.9v-1.3l-16.6,0      c0,0.7-0.6,1.2-1.2,1.2h-5.7c-0.7,0-1.2-0.6-1.2-1.2v0H4.3z" style="fill:#0D5FC3;"/>
</g>
</g>
</g>
<g>
<g>
<g>
<path d="M25,29.4C25,29.4,25,29.4,25,29.4c-1.1,0-2.1-0.4-2.9-1.2c-0.7-0.8-1.2-1.8-1.1-2.8      c0-2.2,1.8-4,4-4c0,0,0,0,0,0c1.1,0,2.1,0.4,2.8,1.2c0.7,0.8,1.2,1.8,1.1,2.8C29,27.7,27.2,29.4,25,29.4z M25,22.6      c-1.5,0-2.8,1.2-2.8,2.8c0,1.5,1.2,2.8,2.8,2.8c0.8,0,1.5-0.3,2-0.8s0.8-1.2,0.8-2l0,0c0-0.8-0.3-1.5-0.8-2      C26.5,22.9,25.8,22.6,25,22.6C25,22.6,25,22.6,25,22.6z" style="fill:#0D5FC3;"/>
</g>
</g>
<g>
<g>
<path d="M30,35.3h-1.2v-1.1c0-1-0.4-2-1.1-2.7c-0.7-0.7-1.7-1.1-2.7-1.1c-1,0-2,0.4-2.7,1.1      c-0.7,0.7-1.1,1.7-1.1,2.7v1.2H20v-1.2c0-1.3,0.6-2.6,1.5-3.5c1-0.9,2.2-1.5,3.6-1.4c1.3,0,2.6,0.5,3.5,1.5s1.4,2.2,1.4,3.6      V35.3z" style="fill:#0D5FC3;"/>
</g>
</g>
</g>
<g>
<g>
<g>
<path d="M29.4,22.9V9.3h16.4v10.7H32.6L29.4,22.9z M30.6,10.5v9.8l1.6-1.5h12.4v-8.3H30.6z" style="fill:#0D5FC3;"/>
</g>
</g>
<g>
<g>
<g>
<rect height="1.2" style="fill:#0D5FC3;" width="1.8" x="39.2" y="12.7"/>
</g>
</g>
<g>
<g>
<rect height="1.2" style="fill:#0D5FC3;" width="3.6" x="34.2" y="12.7"/>
</g>
</g>
<g>
<g>
<rect height="1.2" style="fill:#0D5FC3;" width="6.7" x="34.2" y="15.3"/>
</g>
</g>
</g>
</g>
</g>
</svg>